<?xml version="1.0" encoding="UTF-8"?>
<svg xmlns="http://www.w3.org/2000/svg" xmlns:xlink="http://www.w3.org/1999/xlink" width="36px" height="24px" viewBox="0 0 36 24" version="1.1">
<g id="surface1">
<path style=" stroke:none;fill-rule:nonzero;fill:rgb(45.882353%,45.882353%,46.666667%);fill-opacity:1;" d="M 10.808594 5.902344 C 12.660156 6.15625 13.304688 7.636719 9.988281 10.824219 C 9.929688 11.710938 9.953125 12.535156 10.023438 13.34375 C 11.25 13.609375 12.792969 13.785156 13.757812 14.453125 C 15.121094 15.398438 13.546875 17.035156 12.792969 17.609375 C 11.769531 18.390625 10.417969 19.027344 9.613281 19.125 C 9.164062 19.175781 8.726562 19.078125 8.496094 18.707031 C 8.207031 18.234375 8.214844 17.339844 8.917969 17.140625 C 9.621094 16.945312 9.636719 18.1875 8.738281 18.476562 C 8.785156 18.722656 9.019531 18.816406 9.234375 18.84375 C 10.332031 18.988281 12.3125 17.5 12.828125 16.976562 C 13.238281 16.558594 13.964844 15.878906 13.386719 15.195312 C 12.804688 14.511719 11.367188 14.3125 10.085938 13.867188 C 10.089844 15.257812 10.734375 16.617188 10.765625 17.570312 C 10.777344 17.890625 10.425781 18.402344 10.273438 18.035156 C 10.042969 17.554688 9.613281 14.582031 9.601562 13.675781 C 9.160156 13.46875 8.402344 13.117188 8.265625 12.652344 C 7.960938 11.621094 8.925781 11.019531 9.488281 10.523438 C 9.453125 9.097656 9.652344 7.71875 9.898438 6.246094 C 6.464844 6.128906 4.179688 7.964844 4.257812 9.136719 C 4.277344 9.46875 6.308594 8.847656 6.113281 9.738281 C 5.988281 10.328125 4.226562 10.332031 4.019531 9.453125 C 3.691406 7.46875 7.636719 5.628906 9.953125 5.792969 C 9.984375 5.613281 10.011719 5.273438 10.070312 5.171875 C 10.332031 4.691406 10.910156 4.742188 11.003906 5.058594 C 11.042969 5.1875 10.84375 5.71875 10.808594 5.902344 M 10.679688 6.371094 C 10.417969 7.507812 10.125 8.910156 10.046875 10.089844 C 10.585938 9.308594 13.078125 6.789062 10.679688 6.371094 M 9.578125 13.25 C 9.519531 12.429688 9.570312 11.671875 9.535156 11.164062 C 8.722656 11.566406 8.5 12.929688 9.578125 13.25 "/>
<path style=" stroke:none;fill-rule:nonzero;fill:rgb(45.882353%,45.882353%,46.666667%);fill-opacity:1;" d="M 14.910156 8.605469 C 14.554688 8.855469 14.527344 8.253906 14.5 7.851562 C 14.484375 7.605469 14.773438 7.5 14.957031 7.609375 C 15.171875 7.738281 15.179688 8.050781 15.121094 8.273438 C 15.089844 8.386719 15.007812 8.535156 14.910156 8.605469 "/>
<path style=" stroke:none;fill-rule:nonzero;fill:rgb(45.882353%,45.882353%,46.666667%);fill-opacity:1;" d="M 14.972656 14.003906 C 14.835938 14.054688 14.640625 13.867188 14.574219 13.777344 C 14.417969 13.558594 14.335938 13.273438 14.265625 13.011719 C 14.109375 12.414062 14.035156 11.777344 14.105469 11.15625 C 14.148438 10.773438 14.238281 10.386719 14.378906 10.027344 C 14.417969 9.929688 14.734375 9.339844 14.828125 9.671875 C 14.859375 9.777344 14.804688 9.863281 14.777344 10.039062 C 14.664062 10.738281 14.515625 11.40625 14.691406 12.109375 C 14.796875 12.519531 14.976562 12.90625 15.082031 13.3125 C 15.136719 13.515625 15.238281 13.902344 14.972656 14.003906 "/>
<path style=" stroke:none;fill-rule:nonzero;fill:rgb(45.882353%,45.882353%,46.666667%);fill-opacity:1;" d="M 22.019531 11.046875 C 22.148438 10.128906 23.675781 10.210938 23.671875 10.902344 C 23.671875 11.597656 22.300781 11.613281 22.019531 11.046875 "/>
<path style=" stroke:none;fill-rule:nonzero;fill:rgb(48.627451%,74.901961%,25.882353%);fill-opacity:1;" d="M 29.207031 12.277344 C 28.605469 12.757812 27.953125 12.921875 27.453125 12.90625 C 26.785156 12.886719 25.996094 12.601562 25.625 12.003906 C 25.515625 11.832031 25.445312 11.585938 25.445312 11.386719 C 25.445312 11.421875 26.367188 11.457031 26.445312 11.457031 C 27.003906 11.449219 27.554688 11.339844 28.082031 11.160156 C 28.433594 11.042969 28.78125 10.894531 29.097656 10.703125 C 29.390625 10.527344 29.753906 10.316406 29.914062 9.996094 C 30.226562 9.363281 29.96875 8.582031 29.300781 8.355469 C 29.113281 8.292969 28.914062 8.265625 28.71875 8.25 C 28.453125 8.226562 28.1875 8.261719 27.929688 8.324219 C 27.417969 8.449219 26.90625 8.660156 26.46875 8.960938 C 25.972656 9.304688 25.527344 9.742188 25.234375 10.277344 C 25.003906 10.695312 24.828125 11.195312 24.921875 11.675781 C 25.03125 12.238281 25.34375 12.765625 25.78125 13.128906 C 26.234375 13.511719 26.824219 13.6875 27.398438 13.777344 C 27.585938 13.808594 27.773438 13.828125 27.964844 13.832031 C 28.390625 13.839844 28.835938 13.785156 29.25 13.6875 C 29.859375 13.539062 30.707031 13.160156 30.523438 12.375 C 30.441406 12.035156 30.089844 11.929688 29.785156 12.003906 C 29.589844 12.054688 29.371094 12.15625 29.207031 12.277344 M 27.058594 9.417969 C 27.347656 9.234375 27.699219 9.023438 28.046875 9.011719 C 28.40625 9 28.714844 9.257812 28.730469 9.617188 C 28.757812 10.394531 27.757812 10.660156 27.160156 10.785156 C 26.824219 10.855469 26.484375 10.910156 26.140625 10.921875 C 25.671875 10.9375 25.546875 10.894531 25.546875 10.894531 C 25.886719 10.332031 26.445312 9.808594 27.058594 9.417969 "/>
<path style=" stroke:none;fill-rule:nonzero;fill:rgb(45.882353%,45.882353%,46.666667%);fill-opacity:1;" d="M 21.359375 13.195312 C 21.285156 13.066406 21.089844 12.996094 20.917969 13.035156 C 20.824219 13.058594 20.738281 13.050781 20.703125 13.003906 C 19.726562 11.648438 21.234375 8.371094 19.566406 8.453125 C 18.519531 8.503906 17.695312 9.617188 17.222656 10.839844 C 17.140625 10.507812 17.035156 9.972656 16.941406 9.644531 C 16.902344 9.511719 16.78125 9.351562 16.652344 9.421875 C 16.570312 9.46875 16.617188 9.746094 16.621094 9.8125 C 16.640625 10.019531 16.671875 10.222656 16.691406 10.425781 C 16.722656 10.671875 16.75 10.921875 16.761719 11.171875 C 16.796875 11.980469 16.757812 12.183594 16.769531 12.851562 C 16.78125 13.523438 16.824219 13.878906 17.164062 13.839844 C 17.332031 13.824219 17.449219 13.695312 17.507812 13.398438 C 17.53125 13.285156 17.542969 13.144531 17.546875 12.976562 C 17.664062 11.808594 18.039062 8.839844 19.175781 9.199219 C 20.316406 9.558594 19.332031 11.761719 20.554688 13.441406 C 20.652344 13.574219 20.785156 13.65625 20.863281 13.707031 C 21.125 13.878906 21.628906 13.644531 21.359375 13.195312 "/>
</g>
</svg>
